<?xml version="1.0" encoding="utf-8"?>
<!-- Generator: Adobe Illustrator 21.0.0, SVG Export Plug-In . SVG Version: 6.00 Build 0)  -->
<svg version="1.1" id="Layer_1" xmlns="http://www.w3.org/2000/svg" xmlns:xlink="http://www.w3.org/1999/xlink" x="0px" y="0px"
	 viewBox="0 0 28.7 28.7" style="enable-background:new 0 0 28.7 28.7;" xml:space="preserve">
<g>
	<polygon points="20.7,13.1 19.3,11.7 15.4,15.6 15.4,4.5 13.4,4.5 13.4,15.6 9.4,11.7 8,13.1 14.4,19.5 	"/>
	<rect x="7.9" y="20.3" width="12.9" height="2"/>
	<path d="M14.5,0C6.6,0,0.1,6.5,0.1,14.4s6.4,14.3,14.3,14.3s14.3-6.4,14.3-14.3C28.8,6.5,22.3,0,14.5,0z M14.5,26.8
		C7.6,26.8,2,21.2,2,14.3S7.6,1.9,14.5,1.9S27,7.5,27,14.4S21.3,26.8,14.5,26.8z"/>
</g>
</svg>
